<svg id="Layer_1" data-name="Layer 1" xmlns="http://www.w3.org/2000/svg" viewBox="0 0 707 155"><defs><style>.cls-1{fill:#4285f4;stroke-width:0.5px;fill-rule:evenodd;}.cls-1,.cls-2{stroke:#000;stroke-miterlimit:10;}.cls-2{fill:#5bfcf8;opacity:0.69;}</style><style type="text/css">#printKey{display: none;} @media print{#printKey{display: inline;}}.FeatureGroup {opacity:0;} *:focus{outline: 0px solid transparent;} .FeatureGroup:hover { opacity:0.5;} .FeatureGroup:focus {opacity:1;} .Description {font-size: 16px; font-family: OpenSans, Open Sans;} @media print{.FeatureGroup{opacity:1;}</style></defs><g id="BG_color" data-name="BG color">
<path id="_11_blue" data-name="11 blue" class="cls-1" d="M27,88.5H93V120H27Z"></path>
<path id="_10_blue" data-name="10 blue" class="cls-1" d="M93,88.5h66V120H93Z"></path>
<path id="_9_blue" data-name="9 blue" class="cls-1" d="M159,88.5h66V120H159Z"></path>
<path id="_8_blue" data-name="8 blue" class="cls-1" d="M225,88.5h66V120H225Z"></path><path id="_7_blue" data-name="7 blue" class="cls-1" d="M291,88.5h66V120H291Z"></path>
<path id="_6_blue" data-name="6 blue" class="cls-1" d="M357,88.5h66V120H357Z"></path>
<path id="_5_blue" data-name="5 blue" class="cls-1" d="M423,88.5h66V120H423Z"></path>
<path id="_4_blue" data-name="4 blue" class="cls-1" d="M489,88.5h66V120H489Z"></path><path id="_3_blue" data-name="3 blue" class="cls-1" d="M555,88.5h66V120H555Z"></path><path id="_2_blue" data-name="2 blue" class="cls-1" d="M621,88.5h66V120H621Z"></path><path id="_1_blue" data-name="1 blue" class="cls-1" d="M32,21H98V52.5H32Z"></path></g><path title="1 decimeter" id="_11_grey" data-name="11 grey" class="FeatureGroup" d="M27,88.5H93V120H27Z" tabindex="0" onkeypress="displayDescription(this)" onclick="displayDescription(this), focus()" focusable="true"></path><path  title="1 decimeter" id="_10_grey" data-name="10 grey" class="FeatureGroup" d="M93,88.5h66V120H93Z" tabindex="0" onkeypress="displayDescription(this)" onclick="displayDescription(this), focus()" focusable="true"></path><path  title="1 decimeter" id="_9_grey" data-name="9 grey" class="FeatureGroup" d="M159,88.5h66V120H159Z" tabindex="0" onkeypress="displayDescription(this)" onclick="displayDescription(this), focus()" focusable="true"></path><path  title="1 decimeter" id="_8_grey" data-name="8 grey" class="FeatureGroup" d="M225,88.5h66V120H225Z" tabindex="0" onkeypress="displayDescription(this)" onclick="displayDescription(this), focus()" focusable="true"></path><path  title="1 decimeter" id="_7_grey" data-name="7 grey" class="FeatureGroup" d="M291,88.5h66V120H291Z" tabindex="0" onkeypress="displayDescription(this)" onclick="displayDescription(this), focus()" focusable="true"></path><path  title="1 decimeter" id="_6_grey" data-name="6 grey" class="FeatureGroup" d="M357,88.5h66V120H357Z" tabindex="0" onkeypress="displayDescription(this)" onclick="displayDescription(this), focus()" focusable="true"></path><path  title="1 decimeter" id="_5_grey" data-name="5 grey" class="FeatureGroup" d="M423,88.5h66V120H423Z" tabindex="0" onkeypress="displayDescription(this)" onclick="displayDescription(this), focus()" focusable="true"></path><path  title="1 decimeter" id="_4_grey" data-name="4 grey" class="FeatureGroup" d="M489,88.5h66V120H489Z" tabindex="0" onkeypress="displayDescription(this)" onclick="displayDescription(this), focus()" focusable="true"></path><path  title="1 decimeter" id="_3_grey" data-name="3 grey" class="FeatureGroup" d="M555,88.5h66V120H555Z" tabindex="0" onkeypress="displayDescription(this)" onclick="displayDescription(this), focus()" focusable="true"></path><path  title="1 decimeter" id="_2_grey" data-name="2 grey" class="FeatureGroup" d="M621,88.5h66V120H621Z" tabindex="0" onkeypress="displayDescription(this)" onclick="displayDescription(this), focus()" focusable="true"></path><path  title="1 decimeter" id="_1_grey" data-name="1 grey" class="FeatureGroup" d="M32,21H98V52.5H32Z" tabindex="0" onkeypress="displayDescription(this)" onclick="displayDescription(this), focus()" focusable="true"></path><script type="text/javascript"><![CDATA[function displayDescription(Group) {document.getElementById('DECImeter_blue-01Desc').firstChild.data = Group.getElementsByTagName('desc')[0].innerHTML;}]]></script></svg>